<svg width="17" height="15" viewBox="0 0 17 15" fill="none" xmlns="http://www.w3.org/2000/svg">
<g id="Group 33855">
<path id="Vector 65" d="M2.66667 1L1 2.66667" stroke="white" stroke-width="1.66667" stroke-linecap="round"/>
<path id="Vector 66" d="M14.3333 1L16 2.66667" stroke="white" stroke-width="1.66667" stroke-linecap="round"/>
<path id="Subtract" fill-rule="evenodd" clip-rule="evenodd" d="M8.49967 14.3333C12.1816 14.3333 15.1663 11.3486 15.1663 7.66667C15.1663 3.98477 12.1816 1 8.49967 1C4.81778 1 1.83301 3.98477 1.83301 7.66667C1.83301 11.3486 4.81778 14.3333 8.49967 14.3333ZM10.8176 6.10365C11.1051 5.74427 11.0468 5.21986 10.6874 4.93235C10.3281 4.64484 9.80364 4.70311 9.51614 5.0625L8.32675 6.54923L6.46244 5.30637C6.0795 5.05107 5.56211 5.15455 5.30682 5.53749C5.05152 5.92043 5.155 6.43782 5.53794 6.69312L7.87902 8.25383C8.32859 8.55355 8.9327 8.45976 9.27024 8.03784L10.8176 6.10365Z" fill="white"/>
</g>
</svg>
