<svg width="83" height="38" viewBox="0 0 83 38" fill="none" xmlns="http://www.w3.org/2000/svg">
<path d="M8.26172 8.53516V10.0996H3.07617V13.6328C5.96777 13.6152 7.69922 13.501 9.66797 13.1055L9.87891 14.6172C7.75195 15.1094 5.80078 15.1621 2.42578 15.1621H1.14258V8.53516H8.26172ZM13.0605 7.67383V10.8027H15.2754V12.4023H13.0605V15.6191H11.1094V7.67383H13.0605ZM13.0605 16.3047V20.5234H4.62305V21.7891H13.5527V23.3711H2.68945V19.0469H11.1094V17.8691H2.67188V16.3047H13.0605ZM29.6719 7.69141V17.0957H27.8086V13.1055H26.1562V16.9375H24.3281V7.99023H26.1562V11.5234H27.8086V7.69141H29.6719ZM29.6719 17.7637V23.3711H18.9492V17.7637H29.6719ZM20.9004 19.3281V21.7891H27.7383V19.3281H20.9004ZM22.7812 8.6582V13.2461H18.6504V14.9688C20.4961 14.9512 21.9023 14.8721 23.5195 14.5469L23.6953 16.0938C21.7793 16.4453 20.1621 16.498 17.8418 16.4805H16.752V11.7871H20.9004V10.2051H16.7344V8.6582H22.7812ZM40.957 8.97461V10.5566H39.5332V14.7578C40.2451 14.7051 40.9482 14.6348 41.625 14.5469L41.748 15.9707C38.5137 16.5684 34.7871 16.6035 32.1152 16.6035L31.9043 15.0039L33.7148 14.9863V10.5566H32.3262V8.97461H40.957ZM44.877 7.67383V18.3965H42.9082V7.67383H44.877ZM40.5703 17.8164C40.5527 19.7852 42.5039 21.4727 45.7031 21.9648L44.9648 23.4766C42.4424 23.0723 40.4912 21.9121 39.5508 20.2598C38.584 21.9121 36.6416 23.0723 34.1543 23.4766L33.3809 21.9648C36.5625 21.4727 38.5137 19.7852 38.5137 17.8164V17.5527H40.5703V17.8164ZM35.5957 14.9512C36.2725 14.9424 36.9668 14.9248 37.6699 14.8809V10.5566H35.5957V14.9512Z" fill="#111827"/>
<path fill-rule="evenodd" clip-rule="evenodd" d="M69.5938 11.5C69.5938 12.4961 69.1083 13.3789 68.3611 13.9245L69.4413 14.1692C69.6672 14.2203 69.8571 14.3724 69.9564 14.5817L71.7839 18.4338C71.7957 18.4588 71.8064 18.484 71.8161 18.5094L74.8232 20.3681C75.293 20.6585 75.4384 21.2747 75.148 21.7445C74.8577 22.2143 74.2414 22.3597 73.7716 22.0694L70.3364 19.9461C70.2444 19.8892 70.1648 19.8198 70.0985 19.7414C69.9665 19.6401 69.8578 19.5042 69.7878 19.3394L69.5938 18.8828V20.8594C71.4052 21.7494 74.2484 23.6685 73.4582 25.4489C72.6134 27.3525 68.5299 26.2421 66.5938 25.4489C64.6577 26.2421 60.5743 27.3525 59.7294 25.4489C58.9393 23.6685 61.7825 21.7494 63.5938 20.8594V19.3227L63.5098 19.5206C63.4398 19.6855 63.3311 19.8213 63.1991 19.9226C63.1328 20.001 63.0532 20.0704 62.9611 20.1273L59.5259 22.2506C59.0561 22.5409 58.4399 22.3955 58.1495 21.9257C57.8591 21.4559 58.0046 20.8397 58.4744 20.5493L61.4815 18.6906C61.4911 18.6652 61.5018 18.64 61.5137 18.615L63.3412 14.7629C63.4404 14.5536 63.6303 14.4015 63.8562 14.3504L64.9813 14.0956C65.0048 14.088 65.0284 14.0809 65.0523 14.0742C64.1786 13.5498 63.5938 12.5932 63.5938 11.5C63.5938 9.84315 64.937 8.5 66.5938 8.5C68.2507 8.5 69.5938 9.84315 69.5938 11.5Z" fill="#111827"/>
<path d="M60.5938 12.9243L62.5482 12.5" stroke="#111827" stroke-width="0.8" stroke-linecap="round"/>
<path d="M60.6133 9.42627L62.5241 10.0168" stroke="#111827" stroke-width="0.8" stroke-linecap="round"/>
<path d="M62.5938 6.5L63.8545 7.78858" stroke="#111827" stroke-width="0.8" stroke-linecap="round"/>
<path d="M72.2891 12.5L70.3346 12.0757" stroke="#111827" stroke-width="0.8" stroke-linecap="round"/>
<path d="M72.5742 9.42627L70.6634 10.0168" stroke="#111827" stroke-width="0.8" stroke-linecap="round"/>
<path d="M70.5957 6.5L69.3349 7.78858" stroke="#111827" stroke-width="0.8" stroke-linecap="round"/>
<path d="M66.5938 7L66.5937 5" stroke="#111827" stroke-width="0.8" stroke-linecap="round"/>
<path d="M0 37C0 36.4477 0.447715 36 1 36H82C82.5523 36 83 36.4477 83 37C83 37.5523 82.5523 38 82 38H0.999999C0.447715 38 0 37.5523 0 37Z" fill="#111827"/>
</svg>
