<svg viewBox="0 0 56 56" fill="none" xmlns="http://www.w3.org/2000/svg">
<g clip-path="url(#clip0_4339_8671)">
<circle cx="28" cy="28" r="27" fill="white" stroke="#E5E7EB" stroke-width="2"/>
<path fill-rule="evenodd" clip-rule="evenodd" d="M44.0459 34.9929C41.3471 41.1773 35.1778 45.5 27.9989 45.5C20.3785 45.5 13.8957 40.6292 11.4939 33.8311C8.35155 33.7404 5.83203 31.1645 5.83203 28.0002C5.83203 24.836 8.35147 22.2602 11.4938 22.1694C13.8954 15.371 20.3783 10.5 27.9989 10.5C36.0568 10.5 42.8427 15.9461 44.8767 23.3582C47.8431 23.6327 50.1656 26.1283 50.1656 29.1664C50.1656 32.3881 47.5539 34.9998 44.3323 34.9998C44.2362 34.9998 44.1408 34.9974 44.0459 34.9929Z" fill="#E5E7EB"/>
<path fill-rule="evenodd" clip-rule="evenodd" d="M26.365 25.2016C25.8137 24.0949 24.6173 23.333 23.2062 23.333C22.5883 23.333 21.6334 23.7465 21.2402 24.4184C21.184 24.5735 20.9593 24.5735 20.9032 24.4184C20.4538 23.7982 19.5551 23.3847 18.881 23.3847C17.0274 23.3847 15.4546 24.7802 15.3984 26.4859V26.5893C15.3984 27.4679 15.7916 28.2949 16.4657 28.9152V28.9669C16.5219 29.0185 19.218 31.1894 20.4538 32.1714C20.7908 32.4299 21.2964 32.4299 21.6334 32.1714C22.1525 31.7589 22.9193 31.1367 23.6425 30.5498L23.6426 30.5498C24.6411 29.7395 25.5564 28.9968 25.6215 28.9669V28.9152C26.2176 28.4124 26.594 27.7076 26.6731 26.9078C27.0622 26.8601 27.5022 26.8331 27.9988 26.8331C28.7534 26.8331 29.3772 26.8954 29.8905 26.9983C29.8896 27.0155 29.8889 27.0327 29.8883 27.05V27.1533C29.8883 28.032 30.2815 28.859 30.9556 29.4792V29.5309C31.0117 29.5826 33.7079 31.7535 34.9437 32.7355C35.2807 32.9939 35.7863 32.9939 36.1233 32.7355C36.6424 32.323 37.4092 31.7007 38.1325 31.1139C39.131 30.3036 40.0463 29.5609 40.1114 29.5309V29.4792C40.7855 28.9107 41.1787 28.0837 41.1787 27.1533V27.05C41.1225 25.2926 39.6059 23.8971 37.6961 23.8971C37.0782 23.8971 36.1233 24.3106 35.7301 24.9825C35.6739 25.1376 35.4492 25.1376 35.3931 24.9825C34.9437 24.3623 34.045 23.9488 33.3709 23.9488C32.1774 23.9488 31.1004 24.5273 30.4696 25.3946C29.8688 25.2072 29.064 25.0831 27.9988 25.0831C27.3663 25.0831 26.8256 25.1268 26.365 25.2016Z" fill="#6B7280"/>
<path d="M25.082 33.25C25.2765 33.6389 26.132 34.4167 27.9987 34.4167C29.8654 34.4167 30.7209 33.6389 30.9154 33.25" stroke="#6B7280" stroke-width="1.75" stroke-linecap="round" stroke-linejoin="round"/>
<path d="M25.1921 13.0162C24.58 13.4958 23.6178 15.4282 24.1479 16.7875C24.6781 18.1469 25.5072 18.4837 25.9282 18.5919" stroke="#6B7280" stroke-width="1.39112" stroke-linecap="round"/>
<path d="M28.9101 13.9744C28.2972 14.3922 27.857 16.1896 28.4439 17.4455C28.8807 18.3801 29.9979 18.7428 30.3536 18.8343" stroke="#6B7280" stroke-width="1.39112" stroke-linecap="round"/>
<path d="M32.0018 14.613C31.7083 14.9979 31.9234 16.1073 32.4277 16.8582C32.7258 17.3022 33.6286 17.9506 33.8676 17.934" stroke="#6B7280" stroke-width="1.38833" stroke-linecap="round"/>
</g>
<defs>
<clipPath id="clip0_4339_8671">
<rect width="56" height="56" fill="white"/>
</clipPath>
</defs>
</svg>