<svg viewBox="0 0 24 24" fill="none" xmlns="http://www.w3.org/2000/svg">
<g clip-path="url(#clip0_2969_45766)">
<circle cx="12" cy="12" r="11.7" fill="#F9FAFB" stroke="#9CA3AF" stroke-width="0.6"/>
<circle cx="12" cy="12" r="11.4" stroke="#E5E7EB" stroke-width="1.2"/>
<path fill-rule="evenodd" clip-rule="evenodd" d="M18.8773 14.9969C17.7206 17.6474 15.0767 19.5 12 19.5C8.73409 19.5 5.95574 17.4125 4.92642 14.499C3.5797 14.4602 2.4999 13.3562 2.4999 12.0001C2.4999 10.644 3.57966 9.54007 4.92635 9.50116C5.95562 6.58757 8.73402 4.5 12 4.5C15.4534 4.5 18.3616 6.83403 19.2333 10.0106C20.5046 10.1283 21.5 11.1979 21.5 12.4999C21.5 13.8806 20.3807 14.9999 19 14.9999C18.9588 14.9999 18.9179 14.9989 18.8773 14.9969Z" fill="#E5E7EB"/>
<path fill-rule="evenodd" clip-rule="evenodd" d="M11.2995 10.8007C11.0632 10.3264 10.5505 10 9.94578 10C9.68098 10 9.27173 10.1772 9.10322 10.4652C9.07915 10.5316 8.98285 10.5316 8.95878 10.4652C8.7662 10.1994 8.38102 10.0222 8.09215 10.0222C7.29773 10.0222 6.62368 10.6202 6.59961 11.3512V11.3955C6.59961 11.7721 6.76812 12.1265 7.057 12.3924V12.4145C7.08107 12.4367 8.23659 13.367 8.7662 13.7879C8.91063 13.8987 9.12729 13.8987 9.27173 13.7879C9.49419 13.6111 9.82284 13.3444 10.1328 13.0929L10.1328 13.0929L10.1328 13.0929C10.5607 12.7457 10.953 12.4274 10.9809 12.4145V12.3924C11.2364 12.1769 11.3978 11.8747 11.4316 11.5319C11.5984 11.5114 11.7869 11.4999 11.9996 11.4999C12.323 11.4999 12.5904 11.5266 12.8104 11.5707C12.81 11.5781 12.8097 11.5854 12.8094 11.5928V11.6371C12.8094 12.0137 12.9779 12.3681 13.2668 12.634V12.6561C13.2909 12.6783 14.4464 13.6086 14.976 14.0295C15.1204 14.1403 15.3371 14.1403 15.4815 14.0295C15.704 13.8527 16.0327 13.586 16.3426 13.3345C16.7705 12.9873 17.1628 12.669 17.1907 12.6561V12.634C17.4796 12.3903 17.6481 12.0359 17.6481 11.6371V11.5928C17.6241 10.8397 16.9741 10.2416 16.1556 10.2416C15.8908 10.2416 15.4815 10.4188 15.313 10.7068C15.289 10.7732 15.1927 10.7732 15.1686 10.7068C14.976 10.441 14.5908 10.2638 14.302 10.2638C13.7905 10.2638 13.3289 10.5117 13.0585 10.8834C12.801 10.8031 12.4562 10.7499 11.9996 10.7499C11.7286 10.7499 11.4969 10.7686 11.2995 10.8007Z" fill="#6B7280"/>
<path d="M10.75 14.25C10.8333 14.4167 11.2 14.75 12 14.75C12.8 14.75 13.1667 14.4167 13.25 14.25" stroke="#6B7280" stroke-width="0.75" stroke-linecap="round" stroke-linejoin="round"/>
<path d="M10.7962 5.57838C10.5339 5.78391 10.1215 6.61207 10.3487 7.19465C10.5759 7.77723 10.9312 7.92158 11.1117 7.96798" stroke="#6B7280" stroke-width="0.596195" stroke-linecap="round"/>
<path d="M12.3899 5.98882C12.1272 6.16789 11.9386 6.93819 12.1901 7.47642C12.3773 7.87696 12.8561 8.03244 13.0085 8.07163" stroke="#6B7280" stroke-width="0.596195" stroke-linecap="round"/>
<path d="M13.7151 6.26241C13.5893 6.42738 13.6815 6.90283 13.8976 7.22467C14.0254 7.41495 14.4123 7.69284 14.5147 7.68574" stroke="#6B7280" stroke-width="0.595" stroke-linecap="round"/>
</g>
<defs>
<clipPath id="clip0_2969_45766">
<rect width="24" height="24" fill="white"/>
</clipPath>
</defs>
</svg>