<svg width="72" height="72" viewBox="0 0 72 72" fill="none" xmlns="http://www.w3.org/2000/svg">
<circle cx="36" cy="36" r="35" fill="#FFF7ED" stroke="#1F2937" stroke-width="2"/>
<path d="M19.004 18.2797C18.9456 18.4548 18.9456 18.6299 19.004 18.6883C19.0623 18.7467 18.6343 20.2059 18.0506 21.9375C17.4669 23.669 17 25.245 17 25.4395C17 25.6341 17.5253 26.9182 18.1479 28.2607C20.5799 33.4554 28.1483 50.2265 28.4207 50.9853C28.8098 52.1332 29.3157 52.5223 31.6115 53.4757C32.7205 53.9426 34.5104 54.7209 35.561 55.2267C37.4483 56.1022 37.9347 56.1995 38.1098 55.6937C38.1487 55.5575 38.6935 54.0983 39.2966 52.464C39.9387 50.6935 40.3472 49.3121 40.2889 49.0592C40.2305 48.8257 39.4717 46.919 38.5962 44.8372C37.7207 42.7554 34.9968 36.1987 32.5454 30.2646C30.0939 24.3306 28.0121 19.3887 27.9343 19.3109C27.837 19.2136 26.0665 18.9996 23.9847 18.8245C21.3776 18.6299 20.113 18.4548 19.8989 18.2603C19.5098 17.9101 19.1596 17.9101 19.004 18.2797ZM23.7512 19.4665C25.0548 19.5444 26.2222 19.6611 26.3583 19.7389C26.5335 19.8557 26.1638 20.6923 25.0548 22.7546C24.1987 24.3306 23.4205 25.6147 23.3232 25.6147C23.1286 25.6147 20.5215 19.8168 20.5021 19.3693C20.5021 19.1942 20.6383 19.1553 20.9496 19.2136C21.183 19.272 22.4477 19.3887 23.7512 19.4665ZM21.0858 23.455C21.7862 25.0504 22.3699 26.4318 22.4088 26.5291C22.4282 26.6264 21.5138 26.3151 20.3659 25.8481C19.218 25.3812 18.2646 24.9337 18.2646 24.8364C18.2646 24.5057 19.6071 20.5172 19.7044 20.5172C19.7822 20.5172 20.3853 21.8402 21.0858 23.455ZM31.8839 31.3153C34.2186 36.977 36.7673 43.164 37.565 45.0318C38.3627 46.8995 39.0631 48.6895 39.102 49.0202C39.1993 49.6428 37.8179 53.8064 37.5066 53.8259C37.1175 53.8453 30.4441 41.0822 26.1249 31.9962L23.8485 27.2295L25.4245 24.2138C27.1366 20.9063 27.3117 20.6145 27.5063 20.8479C27.5841 20.9258 29.5491 25.6341 31.8839 31.3153ZM20.5021 26.7236C21.4749 27.1322 22.4477 27.5992 22.7006 27.7743C22.9535 27.9494 23.7707 29.3891 24.763 31.5293C27.156 36.6073 31.2224 44.6621 34.0435 49.8958C35.3859 52.4056 36.5533 54.5847 36.6117 54.7209C36.67 54.896 36.3587 54.8181 35.7556 54.5068C35.2108 54.2345 33.9657 53.6702 32.9539 53.2422C31.9422 52.8142 30.8721 52.3667 30.5803 52.2305C30.1328 52.0165 29.2184 50.1292 24.2182 39.0977C20.9885 32.0157 18.3619 26.1594 18.3619 26.0816C18.3619 25.8481 18.751 25.9649 20.5021 26.7236Z" fill="#111827"/>
<path d="M52.4644 42.2049C52.2918 42.2537 51.6557 42.7187 51.0413 43.2214C50.4268 43.7241 49.4779 44.3082 48.9494 44.5409C48.0703 44.9145 47.6656 44.9258 46.505 44.5983C46.03 44.4694 46.0306 44.8903 46.5005 45.2026C47.5051 45.8704 47.0768 48.3424 45.3706 51.5069C44.9454 52.3223 44.8165 52.7272 44.9409 52.9267C45.249 53.3417 45.5024 53.2065 46.553 52.0125C47.8246 50.5915 49.4636 49.6018 51.26 49.1838C52.0529 49.01 52.6948 48.7825 52.6785 48.7016C52.6514 48.6369 52.4349 48.1893 52.1753 47.7364C51.5857 46.6903 51.708 45.4167 52.5799 43.7535C53.0427 42.8463 53.1501 42.4738 52.9772 42.3121C52.8422 42.199 52.6208 42.1454 52.4644 42.2049ZM50.8986 45.4394C50.7912 45.8119 50.8462 46.5726 50.9981 47.1174L51.28 48.0991L49.7698 48.6139C48.9446 48.9064 48.1195 49.2691 47.9255 49.4204C47.4781 49.7772 47.4021 49.4697 47.7248 48.703C47.8646 48.3521 47.9445 47.5641 47.9059 46.9544L47.8342 45.8321L48.7242 45.5827C49.2043 45.4579 49.9054 45.1763 50.2451 44.9816C50.5793 44.7599 50.9029 44.6246 50.9677 44.6676C51.0163 44.6999 50.9898 45.0561 50.8986 45.4394Z" fill="#111827"/>
<path d="M48.8505 29.7131C48.2085 30.2579 47.5664 30.7054 47.4302 30.7054C47.1384 30.7054 45.6403 29.7131 45.2706 29.2656C44.9593 28.896 44.0838 28.8571 44.0838 29.2073C44.0838 29.3629 44.2978 30.1217 44.5702 30.8999C44.8426 31.6782 45.0566 32.437 45.0566 32.5732C45.0566 32.7094 44.22 33.4876 43.2083 34.3242C41.9436 35.3359 41.3988 35.8807 41.535 36.0169C41.6712 36.1531 42.43 36.1336 43.8892 35.9585C45.076 35.8223 46.0683 35.7445 46.1072 35.7834C46.1461 35.8223 46.5158 36.9119 46.9438 38.196C47.6248 40.2972 47.761 40.5307 48.189 40.589C48.6754 40.6474 48.6949 40.5696 49.2202 38.2543C49.512 36.9313 49.8233 35.725 49.9011 35.5694C50.0179 35.3554 50.5821 35.2386 51.9829 35.1219C53.7145 34.9857 54.6484 34.6939 54.1036 34.4604C54.0063 34.4215 53.1697 33.974 52.2553 33.4681L50.6015 32.5343V31.6782C50.621 31.1918 50.6599 30.3552 50.6988 29.8299C50.7766 28.9738 50.7572 28.8571 50.407 28.7987C50.1735 28.7792 49.5509 29.1295 48.8505 29.7131ZM49.4536 31.6004C49.3564 31.8533 49.2785 31.8338 48.87 31.5615L48.3836 31.2502L48.9089 30.8027L49.4342 30.3357L49.4926 30.8416C49.5315 31.0945 49.512 31.4447 49.4536 31.6004ZM46.5352 31.3085C46.5936 31.4253 46.5547 31.6198 46.438 31.7366C46.185 31.9895 45.9321 31.7755 45.7375 31.1334C45.6208 30.7248 45.6403 30.6859 45.9905 30.8805C46.2239 30.9972 46.4574 31.1918 46.5352 31.3085ZM48.4419 32.2813C49.2007 32.7288 49.3369 33.293 48.9478 34.2853C48.7921 34.7328 48.6559 34.7912 47.8193 34.7912H46.8854L46.652 33.8767C46.4185 33.0207 46.4185 32.9623 46.9244 32.4175C47.5664 31.756 47.5664 31.756 48.4419 32.2813ZM51.302 33.8378C51.7494 34.0518 52.0607 34.2658 52.0218 34.2853C52.0024 34.3242 51.5549 34.4215 51.049 34.4799L50.1151 34.616V34.0324C50.1151 33.3125 50.2708 33.293 51.302 33.8378ZM45.7375 34.4409C45.8543 34.8884 45.7959 34.9857 45.4068 35.0635C44.5702 35.2386 43.6947 35.3165 43.6947 35.1997C43.6947 34.9663 45.3484 33.6627 45.4846 33.7794C45.5624 33.8573 45.6792 34.1491 45.7375 34.4409ZM48.7532 35.5499C48.7532 35.9391 48.2863 37.8068 48.1501 37.9625C48.0723 38.0598 47.8582 37.6706 47.6831 37.087C47.4886 36.5227 47.294 35.9585 47.2551 35.8223C47.1773 35.6083 47.5859 35.4721 48.4225 35.3943C48.5976 35.3943 48.7532 35.4527 48.7532 35.5499Z" fill="#111827"/>
<path d="M33.2705 53.8968L37.4292 55.429L38.7425 51.708L33.2705 53.8968Z" fill="#111827"/>
</svg>
