<svg xmlns="http://www.w3.org/2000/svg" width="24" height="24" viewBox="0 0 24 24" fill="none">
  <path d="M22.1 9.1C22 5.7 19.3 3 15.9 3C14.8 3 13.1 3.8 12.4 5.1C12.3 5.4 11.9 5.4 11.8 5.1C11 3.9 9.4 3.1 8.2 3.1C4.9 3.1 2.1 5.8 2 9.1V9.3C2 11 2.7 12.6 3.9 13.8C4 13.9 8.8 18.2 11 20.1C11.6 20.6 12.5 20.6 13.1 20.1C15.3 18.2 20 13.9 20.2 13.8C21.4 12.7 22.1 11.1 22.1 9.3V9.1Z" fill="#EA580C"/>
  <path d="M21 8.49999C21.5 14 14 17 12 20C8 16.5 2.5 11.3137 2.5 8C2.5 4.68629 9.5 0.999998 12 6.00003C14 3.5 19 0.999991 21 8.49999Z" fill="#EA580C"/>
</svg>