<svg width="72" height="72" viewBox="0 0 72 72" fill="none" xmlns="http://www.w3.org/2000/svg">
<circle cx="36" cy="36" r="35" fill="#FFF7ED" stroke="#1F2937" stroke-width="2"/>
<path d="M46.353 22.1879C44.6132 22.8071 43.3305 24.4585 42.5786 27.0829C42.3279 27.9381 41.458 31.919 41.1337 33.644C40.9715 34.5581 40.9272 34.6319 40.8388 34.2338C40.7798 33.9831 40.6176 32.9068 40.4849 31.8305C39.8952 27.1124 38.922 24.5322 37.4329 23.7508C37.2117 23.6328 36.7252 23.5443 36.3566 23.5443C34.4841 23.5443 33.9681 25.7854 34.1155 33.2754C34.1892 37.448 34.5726 41.8564 35.1771 45.5867C35.6341 48.447 36.4156 51.2484 36.8726 51.7054C37.3444 52.1773 37.9637 52.0741 38.6567 51.4548C39.4971 50.6881 41.3843 47.7835 42.6228 45.336C43.876 42.8885 46.412 37.2121 47.5473 34.337C49.1102 30.3708 49.9948 26.5964 49.7884 24.7091C49.5525 22.5565 48.1813 21.5539 46.353 22.1879ZM46.353 22.9988C46.2056 23.1905 45.8223 23.5738 45.4831 23.8835C44.6722 24.6059 44.1267 25.8444 43.1978 29.0734C42.785 30.533 42.4164 31.7568 42.3722 31.801C42.1362 32.0517 43.301 27.3631 43.8023 25.9919C44.2299 24.8861 45.0703 23.6623 45.7928 23.1168C46.5005 22.586 46.7216 22.5418 46.353 22.9988ZM47.9896 23.3379C48.314 23.6476 48.2845 23.9424 47.9749 23.6623C47.8274 23.5443 47.5768 23.3674 47.4146 23.279C47.1197 23.1168 47.1197 23.1168 47.4441 23.102C47.621 23.102 47.8717 23.2052 47.9896 23.3379ZM46.8396 23.9424C45.8075 27.599 41.0599 43.1244 41.0304 42.9622C40.9715 42.6674 41.3401 40.7211 41.7529 39.173C42.3869 36.7697 46.1319 24.6354 46.412 24.0899C46.6332 23.6476 46.9575 23.5443 46.8396 23.9424ZM36.1207 24.4437C35.8405 24.6207 35.7668 24.4732 36.0027 24.1931C36.1354 24.0309 36.2091 24.0014 36.2534 24.1341C36.2976 24.2373 36.2239 24.37 36.1207 24.4437ZM47.8569 25.1662C47.739 26.0213 47.3261 27.8496 47.2672 27.7906C47.2524 27.7611 47.2967 26.8912 47.3851 25.8592C47.5326 24.2078 47.5768 24.0014 47.7537 24.2373C47.8864 24.4142 47.9159 24.7091 47.8569 25.1662ZM37.1675 24.7386C37.1675 24.8271 37.1085 24.8418 37.0201 24.7976C36.9463 24.7534 36.8726 24.6354 36.8726 24.5617C36.8726 24.4732 36.9463 24.4585 37.0201 24.5027C37.1085 24.5469 37.1675 24.6649 37.1675 24.7386ZM44.3921 28.5868C43.7286 30.7099 42.9324 33.3196 42.6081 34.3665C42.2837 35.3986 41.9888 36.2242 41.9446 36.1947C41.8561 36.0915 43.0061 31.5356 43.8171 28.7785C44.51 26.4637 45.3357 24.4437 45.5126 24.6207C45.5569 24.6649 45.0556 26.4489 44.3921 28.5868ZM36.1059 28.3804C36.1502 32.7594 36.5335 41.9744 36.7399 43.67C36.9463 45.4392 37.2412 46.8252 37.6983 48.1964C37.9637 49.022 38.0374 49.4054 37.9342 49.5971C37.8015 49.8035 37.7573 49.7592 37.6246 49.2727C36.8431 46.3534 36.1502 42.7116 35.7373 39.4679C35.3982 36.7697 35.354 26.6996 35.6636 25.638C35.7668 25.2989 35.8995 25.0188 35.9585 25.0188C36.0175 25.0188 36.0765 26.5226 36.1059 28.3804ZM37.1675 25.638C37.1675 27.5252 37.8015 40.0134 38.0522 42.859C38.1259 43.7879 38.1406 45.1444 38.0816 45.8816L37.9637 47.2085L37.7278 46.1027C37.3444 44.4514 37.1823 42.9622 37.0348 39.6891C36.7842 34.5729 36.5188 25.5201 36.622 25.2694C36.6662 25.1367 36.8137 25.0188 36.9463 25.0188C37.1085 25.0188 37.1675 25.1809 37.1675 25.638ZM46.7511 27.1714C46.471 28.808 46.0582 30.3708 45.0703 33.4228C44.5543 35.0005 43.6254 37.8608 43.0209 39.7628C42.4016 41.6648 41.7971 43.3603 41.6792 43.5225C41.5023 43.7437 41.5317 43.5815 41.7529 42.859C41.9151 42.3282 43.0651 38.4211 44.3331 34.1601C46.9428 25.3136 46.7364 25.9919 46.8396 26.0803C46.8838 26.1246 46.8396 26.6259 46.7511 27.1714ZM48.1518 27.54C47.4588 30.2381 45.5274 36.2684 44.9966 37.4037C44.8197 37.7723 44.7165 37.9345 44.7754 37.7723C44.8197 37.6102 45.2915 36.2095 45.7928 34.6761C46.5005 32.5235 48.0928 26.9502 48.2403 26.0951C48.255 26.0361 48.2993 26.1246 48.3287 26.2867C48.3582 26.4637 48.2845 27.0239 48.1518 27.54ZM38.1848 29.1471C38.3618 30.7984 38.406 36.3274 38.2438 36.1652C38.1259 36.062 37.772 29.6189 37.7868 27.8201C37.7868 26.5374 37.9637 27.1419 38.1848 29.1471ZM48.7416 27.7611C48.6384 28.4983 47.6505 31.7125 47.5621 31.6241C47.4883 31.5651 48.7121 27.0829 48.8005 27.0829C48.83 27.0829 48.8005 27.3778 48.7416 27.7611ZM39.8067 32.7299C39.8214 33.069 39.7625 33.2607 39.674 33.2017C39.6003 33.1575 39.5413 32.6267 39.5413 32.0517C39.556 31.0933 39.5708 31.0491 39.6887 31.5798C39.7477 31.9042 39.8067 32.4203 39.8067 32.7299ZM38.9663 41.8269C38.8483 42.8885 38.8188 42.5641 38.8041 39.6743C38.8041 37.8018 38.8336 35.6492 38.9073 34.8825C38.9958 33.7325 39.0105 34.1158 39.0547 37.0351C39.0695 38.9814 39.0253 41.1487 38.9663 41.8269ZM40.5586 39.7186C40.5586 39.7923 40.4849 39.9397 40.4112 40.0577C40.2932 40.2346 40.2638 40.2198 40.2638 39.9397C40.2638 39.7628 40.3375 39.6153 40.4112 39.6153C40.4997 39.6153 40.5586 39.6596 40.5586 39.7186ZM39.5413 43.6257L39.4086 44.1123L39.3939 43.5078C39.3791 43.1834 39.4233 42.859 39.4971 42.8001C39.674 42.6231 39.7035 43.0802 39.5413 43.6257ZM36.8726 48.4618C37.1823 49.715 37.4919 50.8798 37.5361 51.042C37.6393 51.3221 37.6246 51.3221 37.4182 51.0272C37.0938 50.5996 36.4893 48.447 36.1354 46.4861C35.7963 44.6431 35.7668 43.7879 36.0912 45.2181C36.2091 45.7489 36.563 47.2085 36.8726 48.4618ZM41.7234 45.3508C41.4728 45.8521 41.2221 46.2207 41.1926 46.1912C41.1484 46.1469 41.3401 45.7194 41.6055 45.2328C41.8561 44.7315 42.1068 44.3629 42.1362 44.3924C42.1805 44.4366 41.9888 44.8642 41.7234 45.3508ZM39.8362 47.5919C39.5118 48.1816 39.4381 48.1227 39.4971 47.3707C39.556 46.7662 39.5708 46.7367 39.8214 46.9431C40.0721 47.1495 40.0721 47.1938 39.8362 47.5919ZM38.8778 49.022C38.8336 49.9214 38.5829 50.8061 38.406 50.6439C38.347 50.5702 38.7894 48.0194 38.8778 48.0194C38.9073 48.0194 38.9073 48.4765 38.8778 49.022Z" fill="black"/>
<path d="M23.529 26.2279C23.3079 26.4048 23.0277 26.7587 22.9245 27.0241C22.6886 27.5991 22.6444 29.9729 22.8655 31.2704C22.9392 31.7569 22.9835 32.1697 22.954 32.1992C22.9245 32.2287 22.5412 31.7422 22.0988 31.1082C20.9046 29.4126 19.8725 28.5575 19.0173 28.5575C18.5308 28.5575 18 29.2062 18 29.8107C18 31.7422 21.3027 38.1116 23.2194 39.8809C23.7797 40.3969 23.9861 40.5001 24.4874 40.5001C25.0034 40.5001 25.1214 40.4264 25.5195 39.8956C26.1534 39.0257 26.522 37.9199 26.8464 35.9C27.6131 31.2409 27.274 27.9824 25.8881 26.5375C25.3425 25.9773 25.1951 25.9035 24.6053 25.9035C24.1483 25.9035 23.8091 26.0067 23.529 26.2279ZM25.7259 28.2626C25.8586 28.8229 25.947 29.6633 25.947 30.1351L25.9323 30.9902L25.7848 30.3267C25.7111 29.9581 25.5489 29.1325 25.4162 28.4837C25.2836 27.835 25.1509 27.201 25.1066 27.0831C25.0329 26.8914 25.0624 26.8914 25.2541 27.0536C25.3868 27.1568 25.6079 27.7023 25.7259 28.2626ZM23.9713 29.796C24.0303 31.2851 24.0451 32.5973 24.0156 32.7005C23.7944 33.364 23.3521 28.9113 23.5143 27.7613C23.7207 26.4491 23.8681 27.1125 23.9713 29.796ZM19.2827 29.4126C19.1353 29.5601 19.0321 29.8107 19.0321 29.9581C19.0321 30.1646 18.9879 30.194 18.8699 30.0761C18.6045 29.8107 18.8404 29.1472 19.209 29.1472C19.5039 29.1472 19.5039 29.162 19.2827 29.4126ZM19.9167 29.5158C20.0789 29.7075 20.0642 29.7222 19.8577 29.6485C19.7251 29.6043 19.6218 29.5011 19.6218 29.4274C19.6218 29.2357 19.7103 29.2652 19.9167 29.5158ZM24.915 31.9044C25.0919 33.9095 25.1066 36.1064 24.9444 36.6667C24.7823 37.168 24.6643 35.5756 24.5758 32.0223C24.5021 28.985 24.6643 28.9408 24.915 31.9044ZM21.627 33.1429C22.7918 35.2955 23.47 36.7846 23.0425 36.2538C22.7328 35.8558 20.2116 31.0345 20.2116 30.828C20.2116 30.6069 20.6097 31.2556 21.627 33.1429ZM20.8751 33.4082C21.5681 34.7794 22.5264 36.5192 23.0277 37.2564C23.5143 38.0084 23.8239 38.5834 23.7207 38.5539C23.1309 38.3622 19.0468 30.9165 19.5334 30.9165C19.5776 30.9165 20.1821 32.037 20.8751 33.4082ZM20.3885 33.9243C20.6982 34.573 20.9193 35.1186 20.8898 35.1628C20.8014 35.2365 19.5334 32.5973 19.4154 32.096C19.3122 31.6979 19.4007 31.8601 20.3885 33.9243ZM22.5706 33.2018C22.9687 33.8948 23.3079 34.514 23.3079 34.5878C23.3079 34.6615 23.5143 34.9269 23.7502 35.1923C24.0893 35.5609 24.1925 35.7968 24.1925 36.2686C24.1925 36.593 24.163 36.8289 24.1188 36.7846C23.9861 36.6519 21.686 31.9486 21.7597 31.9486C21.7892 31.9486 22.1578 32.5089 22.5706 33.2018ZM21.2437 35.6346C21.3322 35.7968 21.3616 35.9295 21.3322 35.9295C21.2879 35.9295 21.1847 35.7968 21.0962 35.6346C21.0078 35.4724 20.9783 35.3397 21.0078 35.3397C21.052 35.3397 21.1552 35.4724 21.2437 35.6346ZM24.7085 39.7629C24.4874 39.9988 24.3989 40.0283 24.222 39.8809C24.0303 39.7187 24.0598 39.6745 24.3547 39.6007C24.9444 39.4386 24.9887 39.4533 24.7085 39.7629Z" fill="black"/>
</svg>
