<svg width="99" height="32" viewBox="0 0 99 32" fill="none" xmlns="http://www.w3.org/2000/svg">
<path d="M13.9395 7.69141V23.5469H11.9531V19.9082H8.57812V18.4316H11.9531V7.69141H13.9395ZM0.457031 15.8477C3.44531 15.8477 7.41797 15.8301 10.8633 15.3555L10.9863 16.7969C9.52734 17.0518 8.02441 17.2012 6.55664 17.2891V23.0723H4.58789V17.3945C3.19922 17.4385 1.88086 17.4473 0.703125 17.4473L0.457031 15.8477ZM5.67773 8.37695C8.01562 8.37695 9.7207 9.69531 9.7207 11.5938C9.7207 13.5273 8.01562 14.793 5.67773 14.793C3.28711 14.793 1.59961 13.5273 1.59961 11.5938C1.59961 9.69531 3.28711 8.37695 5.67773 8.37695ZM5.67773 9.87109C4.3418 9.87109 3.44531 10.5566 3.44531 11.5938C3.44531 12.666 4.3418 13.2988 5.67773 13.2988C6.94336 13.2988 7.85742 12.666 7.85742 11.5938C7.85742 10.5566 6.94336 9.87109 5.67773 9.87109ZM23.1328 9.50195C23.124 10.9961 22.9834 12.4287 22.623 13.7734H24.5742V8.06055H26.4199V22.8086H24.5742V15.3555H22.043C21.1553 17.2627 19.6611 18.959 17.1914 20.3477L16.084 19.0117C18.2461 17.7812 19.5645 16.3486 20.3379 14.7051L16.3652 15.1094L16.1367 13.4219L20.9004 13.1582C21.0586 12.499 21.1641 11.8047 21.2168 11.084H16.9102V9.50195H23.1328ZM29.7949 7.67383V23.5645H27.9316V7.67383H29.7949ZM44.8594 7.67383V23.582H42.8906V7.67383H44.8594ZM36.2988 8.83398C38.6895 8.83398 40.4297 11.0137 40.4473 14.4414C40.4297 17.9043 38.6895 20.0664 36.2988 20.0664C33.8906 20.0664 32.1504 17.9043 32.1504 14.4414C32.1504 11.0137 33.8906 8.83398 36.2988 8.83398ZM36.2988 10.5918C34.9453 10.5918 34.0312 12.0156 34.0312 14.4414C34.0312 16.8848 34.9453 18.3086 36.2988 18.3086C37.6348 18.3086 38.5488 16.8848 38.5488 14.4414C38.5488 12.0156 37.6348 10.5918 36.2988 10.5918ZM52.9805 10.4863C52.9805 12.7188 54.2285 14.916 56.6719 15.8301L55.582 17.3418C53.8857 16.6738 52.6729 15.3467 52.0137 13.7031C51.3281 15.4609 50.0449 16.8584 48.2168 17.5703L47.1621 16.0234C49.6934 15.1094 50.9941 12.8594 51.0117 10.4863V8.58789H52.9805V10.4863ZM60.5039 7.69141V19.4863H58.5527V14.5645H55.6523V13H58.5527V11.4355H55.6523V9.85352H58.5527V7.69141H60.5039ZM60.8555 21.666V23.248H50.0273V18.3262H52.0137V21.666H60.8555Z" fill="#9CA3AF"/>
<path fill-rule="evenodd" clip-rule="evenodd" d="M93 28C93 25.2386 88.299 22.5 82.5 22.5C76.701 22.5 72 25.2386 72 28H93Z" fill="#9CA3AF"/>
<rect x="78.0586" y="14.8926" width="1" height="9.52579" rx="0.5" transform="rotate(-16.685 78.0586 14.8926)" fill="#9CA3AF"/>
<rect x="76" y="9.28711" width="1" height="1.49575" rx="0.5" transform="rotate(-16.685 76 9.28711)" fill="#9CA3AF"/>
<path d="M77.0009 10C72.7191 11.1418 71.5778 15.4072 71.5781 18.7256C71.5782 19.928 72.9449 20.1119 73.4827 19.0364C73.78 18.4417 74.4694 18.1562 75.1001 18.3664L75.6639 18.5543C76.4672 18.8221 77.3523 18.5607 77.8813 17.8995L78.0823 17.6483C78.6342 16.9584 79.5577 16.6856 80.396 16.965L80.7171 17.0721C81.4672 17.3221 82.2903 17.0176 82.6971 16.3396L82.8136 16.1455C83.2014 15.4991 84.0215 15.2603 84.6957 15.5974C85.798 16.1486 86.8554 15.2013 86.1801 14.1705C84.4703 11.5608 81.2889 8.85654 77.0009 10Z" fill="#9CA3AF"/>
<circle cx="91.5" cy="8" r="3.5" fill="#9CA3AF"/>
<path d="M86.75 8L85.75 8" stroke="#9CA3AF" stroke-linecap="round"/>
<path d="M97 8L96 8" stroke="#9CA3AF" stroke-linecap="round"/>
<path d="M88.1055 11.2704L87.3984 11.9775" stroke="#9CA3AF" stroke-linecap="round"/>
<path d="M95.3536 4.02239L94.6465 4.72949" stroke="#9CA3AF" stroke-linecap="round"/>
<path d="M88.1055 4.72957L87.3984 4.02246" stroke="#9CA3AF" stroke-linecap="round"/>
<path d="M95.3536 11.9776L94.6465 11.2705" stroke="#9CA3AF" stroke-linecap="round"/>
<path d="M91.375 12.625L91.375 13.625" stroke="#9CA3AF" stroke-linecap="round"/>
<path d="M91.375 2.375L91.375 3.375" stroke="#9CA3AF" stroke-linecap="round"/>
</svg>
