<svg width="72" height="72" viewBox="0 0 72 72" fill="none" xmlns="http://www.w3.org/2000/svg">
<circle cx="36" cy="36" r="35" fill="#FFF7ED" stroke="#1F2937" stroke-width="2"/>
<path d="M34.7016 15.3293C34.3764 15.348 34.1206 15.484 33.784 15.813L33.3211 16.2747L32.8256 15.5168C32.4026 14.855 32.2789 14.7408 31.827 14.6664C30.8719 14.4997 30.3737 15.3651 30.6204 16.744C30.7574 17.4515 31.3778 18.926 32.0819 20.1113L32.5141 20.8604L32.8509 20.6067C33.2599 20.2987 34.6059 18.6816 35.1674 17.8251C35.9872 16.5856 35.7436 15.2609 34.7016 15.3293ZM34.2186 17.7668C33.8402 18.3157 33.3025 19.0035 33.0169 19.2751C32.5179 19.7641 32.4938 19.7822 32.2674 19.4814C31.914 19.0123 31.3051 17.2275 31.2464 16.4988C31.1996 15.6857 31.4488 15.2906 31.991 15.3347C32.491 15.3729 32.5605 15.4902 32.716 16.4476C32.7832 16.8872 32.9227 17.3478 33.0314 17.4921C33.1854 17.6966 33.2516 17.6844 33.495 17.4068C33.6483 17.2349 34.0631 16.8094 34.4328 16.4743L35.1093 15.8706L35.0138 16.3195C34.9691 16.5606 34.609 17.2088 34.2186 17.7668Z" fill="black"/>
<path d="M29.4885 21.6772C29.2106 21.8433 28.9312 22.1897 28.7835 22.6214C28.5557 23.287 28.5254 23.3168 28.1368 23.0431C27.4012 22.5502 26.6808 22.4242 26.1912 22.7389C24.8377 23.5818 25.7568 25.1825 28.7232 27.1422C29.4947 27.6474 30.2369 28.0622 30.3813 28.0513C30.7482 28.0362 31.6475 25.3499 31.6998 24.0818C31.7738 22.3388 30.5996 21.0728 29.4885 21.6772ZM30.5546 24.4333C30.4825 25.1722 30.3068 26.0967 30.1652 26.5104C29.9251 27.212 29.9009 27.2238 29.4702 26.9558C28.4771 26.3346 27.3312 25.2793 26.9872 24.6993C26.2039 23.4064 26.9738 22.625 27.8844 23.7806C28.7174 24.8695 28.9204 25.0395 29.203 25.0357C29.3654 25.031 29.4927 24.8938 29.4824 24.6893C29.463 24.0999 29.8296 22.6178 30.0725 22.3191C30.3031 22.0564 30.3329 22.0867 30.5094 22.5691C30.6154 22.8466 30.6446 23.7005 30.5546 24.4333Z" fill="black"/>
<path d="M50.3647 25.4713C48.5838 25.8331 46.4133 27.1409 45.5228 28.3653C45.1054 28.9496 44.4654 30.174 44.1593 31.0645L43.575 32.7063L42.3228 31.621C39.7905 29.367 36.98 28.7549 34.5591 29.9514C31.6095 31.3706 30.9138 35.7394 32.973 39.9412C33.9469 41.9447 37.62 45.6179 40.1523 47.1205C43.3802 49.0127 45.662 49.764 48.222 49.7919C50.1977 49.7919 50.6151 49.7084 51.9508 48.9849C52.7856 48.5118 54.177 47.4544 55.0396 46.5918C61.2171 40.4977 62.7198 31.4262 58.184 27.4192C56.2918 25.7774 53.0082 24.9426 50.3647 25.4713ZM55.5405 26.8348C57.8223 28.0035 58.991 29.9792 59.1579 32.9845C59.4084 37.4368 57.4327 42.2508 53.9265 45.8405C51.6726 48.1223 50.0029 49.0962 48.3333 49.124C44.048 49.1519 36.6461 44.0317 34.4478 39.5516C32.973 36.602 32.9452 33.2628 34.3643 31.5654C36.1731 29.4227 38.2044 29.5897 40.9036 32.0941C41.7941 32.9289 42.7402 33.9585 42.9906 34.4037C43.9924 36.1011 44.9107 35.7394 45.1054 33.5689C45.4115 29.9236 47.6377 27.0853 50.7264 26.2783C51.9508 25.9444 54.3717 26.2505 55.5405 26.8348Z" fill="black"/>
<path d="M48.1521 36.8685C47.8276 36.965 47.6963 37.2618 47.7513 37.7036C47.8751 38.6977 48.6656 38.5152 48.6522 37.5073C48.656 36.8619 48.556 36.7341 48.1521 36.8685Z" fill="black"/>
<path d="M43.7314 37.4991C43.4123 37.6122 43.2965 37.9153 43.3742 38.3537C43.549 39.3401 44.329 39.1171 44.2638 38.1113C44.2343 37.4665 44.1278 37.3441 43.7314 37.4991Z" fill="black"/>
<path d="M49.7176 40.0972C49.6141 39.9722 49.145 40.1313 48.7082 40.4494C47.7282 41.1365 46.0968 41.3284 44.8896 40.9027C43.8661 40.5417 43.4849 40.7024 43.499 41.4155C43.5146 42.0406 45.4998 42.7702 46.7176 42.58C48.4556 42.3372 50.2858 40.8286 49.7176 40.0972Z" fill="black"/>
<path d="M16.6351 35.0991C18.2992 34.3688 20.8268 34.1873 22.26 34.6751C22.9378 34.9122 24.1663 35.5443 24.9295 36.0958L26.353 37.101L26.7513 35.4926C27.5225 32.1914 29.467 30.0719 32.1352 29.6551C35.3637 29.1158 38.4493 32.2859 39.1869 36.9067C39.5451 39.1054 38.6589 44.2238 37.4549 46.9109C35.9066 50.3172 34.4744 52.2459 32.3979 53.7435C30.7831 54.8818 30.3938 55.054 28.8852 55.2321C27.9304 55.3264 26.1839 55.2637 24.9819 55.0556C16.4217 53.6335 9.96722 47.0844 11.3661 41.1961C11.9669 38.764 14.1698 36.1899 16.6351 35.0991ZM13.1902 39.1954C11.9984 41.4653 12.1814 43.7535 13.7763 46.3061C16.1366 50.0895 20.5249 52.8861 25.4588 53.8002C28.6157 54.3667 30.5415 54.2009 31.9222 53.2618C35.4409 50.8157 38.5412 42.3663 37.757 37.4379C37.2631 34.1773 35.3621 31.4319 33.2242 30.8621C30.5114 30.1528 28.9472 31.4596 28.1838 35.0616C27.9369 36.257 27.7568 37.6436 27.8086 38.1518C27.9677 40.1164 27.0087 40.3497 25.599 38.6879C23.2487 35.8847 19.7939 34.8472 16.8044 35.9671C15.6112 36.3996 13.8088 38.0445 13.1902 39.1954Z" fill="black"/>
<path d="M25.0098 43.1404C25.3306 43.0323 25.6089 43.1992 25.8185 43.592C26.29 44.4759 25.5387 44.7821 24.969 43.9506C24.5941 43.4252 24.6022 43.2632 25.0098 43.1404Z" fill="black"/>
<path d="M28.9855 41.1088C29.3115 41.0173 29.5808 41.1984 29.7699 41.6015C30.1952 42.5084 29.4292 42.7755 28.903 41.9158C28.5557 41.3718 28.5722 41.2104 28.9855 41.1088Z" fill="black"/>
<path d="M25.592 46.6805C25.6045 46.5187 26.0797 46.3784 26.6199 46.3868C27.8168 46.3839 29.2608 45.6008 30.0023 44.5574C30.6309 43.6727 31.0351 43.5844 31.4344 44.1754C31.7818 44.6954 30.5794 46.4354 29.4745 46.9815C27.914 47.7843 25.5489 47.6057 25.592 46.6805Z" fill="black"/>
</svg>
