<svg xmlns="http://www.w3.org/2000/svg" width="157" height="48" viewBox="0 0 157 48" fill="none">
  <rect x="40.209" y="19.8491" width="35.7907" height="3.97674" fill="#F97316"/>
  <rect x="40.209" y="23.8257" width="3.53488" height="22.093" fill="#F97316"/>
  <rect x="53.9062" y="23.8257" width="3.53488" height="22.093" fill="#F97316"/>
  <rect x="76" y="23.8257" width="3.53488" height="22.093" fill="#FDBA74"/>
  <rect x="91.4648" y="23.8257" width="3.53488" height="22.093" fill="#FDBA74"/>
  <rect x="76" y="19.8491" width="19" height="3.97674" fill="#FDBA74"/>
  <rect y="12.7793" width="16.3488" height="16.1279" fill="#F97316"/>
  <rect y="28.9072" width="16.3488" height="3.97674" fill="#FDBA74"/>
  <rect x="16.3496" y="28.9072" width="10.6047" height="3.97674" fill="#F97316"/>
  <rect x="12.8145" y="32.8838" width="3.53488" height="13.2558" fill="#F97316"/>
  <rect y="32.8838" width="3.53488" height="13.2558" fill="#F97316"/>
  <rect x="23.418" y="32.8838" width="3.53488" height="13.2558" fill="#F97316"/>
  <path d="M58.3008 18.1108H64.2457H76.0495V19.8681H58.3008V18.1108Z" fill="#EA580C"/>
  <path d="M64.2754 18.1108L64.6269 9.5H76.6643L76.0493 18.1108H64.2754Z" fill="#FDBA74"/>
  <path d="M65.5938 17.0562L66.0331 10.6421H75.4346L74.9074 17.0562H65.5938Z" fill="#FFEDD5"/>
  <path d="M115.481 29.5696C113.96 29.8855 112.713 30.568 111.693 31.6699C110.896 32.5282 110.539 33.2669 110.565 34.0412C110.59 34.7442 110.838 35.2239 111.344 35.571C112.221 36.1582 113.358 36.0821 114.201 35.3852L114.632 35.0211L114.707 35.4364C114.804 35.9222 115.144 36.4289 115.492 36.5884C116.128 36.8793 117.235 36.5493 117.727 35.9072C117.968 35.6017 117.968 35.6017 118.086 35.801C118.183 35.9706 118.169 36.1548 118.015 36.6507C117.158 39.5723 113.472 42.5954 108.077 44.862C106.954 45.3253 104.08 46.9399 104.664 46.9165C105.087 46.8996 109.873 44.5978 111.505 43.7061C115.057 41.7683 117.886 39.0534 118.472 37.0303L118.625 36.5242L119.22 36.5107C119.572 36.4966 119.863 36.4441 119.94 36.3594C120.319 35.9463 120.303 36.3653 119.907 37.738C118.926 41.1237 116.918 43.9894 114.116 46.04C113.379 46.5796 113.16 46.5091 113.354 46.5829C113.518 46.6478 113.848 46.7241 114.321 46.4093C116.419 45.0092 118.539 42.4554 119.654 40.0131C120.037 39.1612 120.746 36.9291 120.735 36.603C120.727 36.3585 120.847 36.3537 121.088 36.5991C121.569 37.1002 122.544 37.0102 123.107 36.4061L123.428 36.0668L123.582 36.4177C123.669 36.6182 123.797 36.807 123.858 36.8351C124.002 36.9212 124.044 38.1234 123.946 39.0864C123.611 42.2115 122.067 45.079 119.741 46.8963C119.706 46.9169 121.101 46.8256 121.377 46.9166C121.377 46.9166 120.332 47.0767 121.257 46.1317C123.311 44.0294 124.465 41.2489 124.496 38.3706L124.515 37.1761L125.009 37.1564C125.562 37.1342 126.187 36.8338 126.416 36.4675C126.799 35.8808 126.353 35.7967 125.838 36.358C125.556 36.6652 125.427 36.7315 125.055 36.7464C124.692 36.7609 124.549 36.7054 124.299 36.4604C124.007 36.1762 123.995 36.1257 123.963 35.1986C123.93 34.2409 123.929 34.2307 123.689 34.2709C123.498 34.2989 123.422 34.4244 123.297 34.8987C123.137 35.5071 122.833 36.06 122.501 36.3589C121.963 36.8396 121.262 36.3881 121.119 35.4654C121.068 35.1614 121.051 34.6621 121.071 34.3553C121.09 34.0484 121.09 33.7627 121.068 33.7126C120.994 33.5932 120.633 33.6484 120.597 33.7825C120.579 33.8546 120.492 34.2356 120.415 34.6264C120.223 35.5013 119.731 36.1433 119.228 36.1635C118.765 36.182 118.561 35.8331 118.456 34.8272C118.391 34.1157 118.347 34.0052 118.196 34.0112C118.065 34.0165 117.959 34.1737 117.833 34.5869C117.398 36.0021 116.294 36.7298 115.585 36.0644C115.325 35.8198 115.312 35.7488 115.268 34.761C115.238 33.895 115.201 33.7128 115.07 33.6976C114.978 33.6809 114.831 33.799 114.726 33.9563C114.028 35.0657 113.193 35.6806 112.524 35.5748C111.662 35.4358 111.009 34.6254 111.102 33.8055C111.275 32.411 112.952 30.7727 114.866 30.1553C115.764 29.8644 119.106 29.7204 120.474 29.9309C122.287 30.195 123.593 30.6325 124.85 31.4085C126.487 32.4143 127.365 33.6034 127.716 35.2728C128.357 38.3793 126.644 43.3246 123.911 46.2193C123.396 46.7602 123.361 46.9147 123.743 46.8994C124.116 46.8845 125.412 45.3226 126.26 43.8807C128.44 40.1716 129.013 35.7616 127.62 33.3892C126.473 31.4252 123.894 30.0184 120.592 29.5589C119.316 29.3855 116.382 29.3907 115.481 29.5696Z" fill="#EA580C" stroke="#EA580C" stroke-width="0.8"/>
  <path d="M134.197 35.3957C133.137 35.6109 132.268 36.0743 131.556 36.8217C131 37.4038 130.751 37.9046 130.769 38.4293C130.786 38.9056 130.958 39.2305 131.311 39.4652C131.921 39.8625 132.713 39.81 133.301 39.3372L133.601 39.0901L133.653 39.3715C133.721 39.7006 133.957 40.0436 134.2 40.1515C134.642 40.348 135.414 40.1236 135.757 39.6882C135.926 39.481 135.926 39.481 136.008 39.616C136.075 39.7308 136.065 39.8556 135.957 40.1917C135.359 42.172 132.789 44.2232 129.028 45.7631C128.245 46.0779 126.242 47.1741 126.649 47.1578C126.943 47.146 130.279 45.5828 131.417 44.9773C133.893 43.6616 135.866 41.8198 136.275 40.4486L136.383 40.1056L136.797 40.0959C137.042 40.0861 137.245 40.0503 137.299 39.9929C137.563 39.7127 137.552 39.9966 137.275 40.927C136.589 43.2218 135.188 45.1651 133.235 46.5567C132.721 46.9229 132.569 46.8752 132.704 46.9251C132.818 46.969 133.047 47.0204 133.377 46.8067C134.84 45.8564 136.318 44.1244 137.097 42.4688C137.365 41.8912 137.86 40.3782 137.852 40.1573C137.847 39.9917 137.931 39.9883 138.098 40.1544C138.433 40.4936 139.112 40.4318 139.505 40.0221L139.729 39.7919L139.836 40.0296C139.897 40.1654 139.985 40.2932 140.028 40.3122C140.128 40.3704 140.157 41.185 140.088 41.8375C139.852 43.9553 138.775 45.8994 137.153 47.1326C137.128 47.1465 138.101 47.0836 138.293 47.1451C138.293 47.1451 137.565 47.2544 138.21 46.6133C139.642 45.1873 140.448 43.3024 140.471 41.3521L140.486 40.5428L140.829 40.529C141.215 40.5136 141.65 40.3095 141.81 40.0611C142.078 39.6633 141.767 39.6067 141.408 39.9874C141.211 40.1957 141.121 40.2408 140.862 40.2512C140.609 40.2613 140.51 40.2238 140.335 40.058C140.132 39.8656 140.124 39.8314 140.102 39.2032C140.08 38.5543 140.079 38.5474 139.912 38.5749C139.779 38.594 139.726 38.6791 139.639 39.0006C139.526 39.4129 139.315 39.7878 139.083 39.9906C138.708 40.3167 138.22 40.0113 138.121 39.3862C138.085 39.1802 138.074 38.842 138.088 38.6341C138.102 38.4261 138.102 38.2326 138.087 38.1986C138.035 38.1177 137.783 38.1554 137.758 38.2463C137.746 38.2952 137.685 38.5534 137.63 38.8183C137.496 39.4112 137.153 39.8466 136.803 39.8606C136.48 39.8736 136.338 39.6373 136.266 38.9558C136.221 38.4737 136.19 38.3989 136.085 38.4031C135.994 38.4068 135.92 38.5134 135.832 38.7935C135.528 39.7527 134.758 40.2466 134.265 39.7963C134.084 39.6307 134.075 39.5827 134.045 38.9134C134.024 38.3266 133.999 38.2032 133.907 38.1931C133.844 38.1818 133.741 38.2619 133.668 38.3686C133.181 39.1208 132.598 39.5381 132.132 39.4669C131.532 39.3734 131.078 38.8248 131.143 38.2691C131.265 37.3241 132.434 36.2128 133.768 35.793C134.393 35.5952 136.722 35.4951 137.675 35.6367C138.938 35.8142 139.847 36.1096 140.722 36.6345C141.863 37.3147 142.474 38.1198 142.716 39.2507C143.162 41.355 141.964 44.7072 140.059 46.6707C139.699 47.0376 139.675 47.1423 139.941 47.1316C140.201 47.1212 141.105 46.0619 141.696 45.0843C143.218 42.5694 143.62 39.5809 142.651 37.9744C141.854 36.6446 140.058 35.6934 137.757 35.3845C136.868 35.268 134.825 35.2737 134.197 35.3957Z" fill="#EA580C" stroke="#EA580C" stroke-width="0.8"/>
  <path d="M149.141 38.3036C148.327 38.4681 147.66 38.8217 147.114 39.392C146.687 39.8363 146.495 40.2183 146.509 40.6186C146.522 40.9819 146.654 41.2297 146.925 41.4088C147.393 41.7117 148.001 41.6715 148.453 41.3107L148.684 41.1221L148.723 41.3368C148.775 41.5878 148.957 41.8495 149.143 41.9317C149.483 42.0816 150.075 41.9102 150.339 41.578C150.468 41.4199 150.468 41.4199 150.531 41.5228C150.583 41.6104 150.575 41.7056 150.492 41.962C150.032 43.4728 148.059 45.0381 145.171 46.2136C144.57 46.4539 143.031 47.2906 143.344 47.2781C143.57 47.269 146.132 46.0758 147.006 45.6137C148.907 44.6095 150.422 43.2041 150.736 42.1579L150.819 41.8962L151.137 41.8888C151.325 41.8812 151.481 41.8539 151.523 41.8101C151.725 41.5963 151.717 41.8128 151.504 42.5227C150.977 44.2735 149.901 45.7562 148.401 46.8182C148.006 47.0977 147.889 47.0613 147.993 47.0994C148.08 47.1328 148.257 47.172 148.51 47.0089C149.634 46.2837 150.769 44.9621 151.367 43.6989C151.573 43.2582 151.953 42.104 151.948 41.9354C151.943 41.8091 152.008 41.8065 152.136 41.9332C152.393 42.1918 152.915 42.1446 153.217 41.8319L153.389 41.6563L153.47 41.8376C153.517 41.9412 153.585 42.0386 153.618 42.0531C153.695 42.0975 153.717 42.7189 153.664 43.2167C153.482 44.8324 152.655 46.3157 151.409 47.2568C151.39 47.2674 152.137 47.2192 152.284 47.2661C152.284 47.2661 151.725 47.3496 152.221 46.8604C153.321 45.7722 153.94 44.3342 153.958 42.8464L153.969 42.2289L154.233 42.2184C154.529 42.2065 154.864 42.0508 154.987 41.8613C155.192 41.5577 154.953 41.5146 154.677 41.8051C154.526 41.9641 154.457 41.9985 154.258 42.0064C154.064 42.0142 153.988 41.9856 153.854 41.8591C153.698 41.7125 153.692 41.6863 153.675 41.2071C153.658 40.7121 153.658 40.7068 153.529 40.7278C153.427 40.7424 153.386 40.8074 153.319 41.0526C153.233 41.3672 153.07 41.6532 152.892 41.808C152.604 42.0568 152.229 41.824 152.154 41.3471C152.127 41.19 152.118 40.932 152.128 40.7733C152.139 40.6147 152.139 40.467 152.128 40.4411C152.088 40.3795 151.895 40.4083 151.875 40.4776C151.866 40.5149 151.819 40.7119 151.777 40.9139C151.674 41.3663 151.411 41.6985 151.142 41.7093C150.894 41.7192 150.785 41.539 150.729 41.0192C150.695 40.6514 150.671 40.5943 150.591 40.5976C150.521 40.6004 150.464 40.6817 150.396 40.8954C150.163 41.6272 149.572 42.0042 149.193 41.6607C149.054 41.5345 149.047 41.4978 149.024 40.9872C149.009 40.5396 148.989 40.4455 148.919 40.4377C148.87 40.4291 148.791 40.4903 148.735 40.5717C148.361 41.1456 147.913 41.4641 147.556 41.4099C147.095 41.3387 146.746 40.9202 146.796 40.4963C146.89 39.7754 147.788 38.9273 148.812 38.6069C149.292 38.4558 151.08 38.379 151.812 38.4868C152.782 38.622 153.48 38.8472 154.152 39.2474C155.027 39.7661 155.496 40.3801 155.682 41.2428C156.024 42.8481 155.104 45.4056 153.64 46.9038C153.364 47.1838 153.346 47.2636 153.55 47.2554C153.749 47.2475 154.444 46.4392 154.898 45.6933C156.067 43.7745 156.376 41.4945 155.633 40.2692C155.02 39.2549 153.642 38.5296 151.875 38.2944C151.193 38.2057 149.624 38.2105 149.141 38.3036Z" fill="#EA580C" stroke="#EA580C" stroke-width="0.8"/>
  <circle cx="141.369" cy="10.3649" r="5.70274" fill="#EA580C"/>
  <path d="M133.629 10.3662L132 10.3662" stroke="#EA580C" stroke-width="1.62936" stroke-linecap="round"/>
  <path d="M150.331 10.3662L148.701 10.3662" stroke="#EA580C" stroke-width="1.62936" stroke-linecap="round"/>
  <path d="M135.836 15.6946L134.684 16.8467" stroke="#EA580C" stroke-width="1.62936" stroke-linecap="round"/>
  <path d="M147.646 3.88498L146.494 5.03711" stroke="#EA580C" stroke-width="1.62936" stroke-linecap="round"/>
  <path d="M135.836 5.03738L134.684 3.88525" stroke="#EA580C" stroke-width="1.62936" stroke-linecap="round"/>
  <path d="M147.646 16.847L146.494 15.6948" stroke="#EA580C" stroke-width="1.62936" stroke-linecap="round"/>
  <path d="M140.906 17.7012L140.906 19.3306" stroke="#EA580C" stroke-width="1.62936" stroke-linecap="round"/>
  <path d="M140.906 1.00004L140.906 2.62939" stroke="#EA580C" stroke-width="1.62936" stroke-linecap="round"/>
</svg>