<svg width="56" height="56" viewBox="0 0 56 56" fill="none" xmlns="http://www.w3.org/2000/svg">
<g clip-path="url(#clip0_4339_14089)">
<circle cx="28" cy="28" r="27" fill="white" stroke="#E5E7EB" stroke-width="2"/>
<path fill-rule="evenodd" clip-rule="evenodd" d="M44.0478 34.9929C41.349 41.1773 35.1798 45.5 28.0009 45.5C20.3804 45.5 13.8976 40.6292 11.4959 33.8311C8.35351 33.7404 5.83398 31.1645 5.83398 28.0002C5.83398 24.836 8.35342 22.2602 11.4957 22.1694C13.8973 15.371 20.3803 10.5 28.0009 10.5C36.0588 10.5 42.8447 15.9461 44.8786 23.3582C47.845 23.6327 50.1675 26.1283 50.1675 29.1664C50.1675 32.3881 47.5559 34.9998 44.3342 34.9998C44.2382 34.9998 44.1427 34.9974 44.0478 34.9929Z" fill="#E5E7EB"/>
<path fill-rule="evenodd" clip-rule="evenodd" d="M26.3669 25.2016C25.8157 24.0949 24.6192 23.333 23.2081 23.333C22.5902 23.333 21.6353 23.7465 21.2421 24.4184C21.186 24.5735 20.9613 24.5735 20.9051 24.4184C20.4558 23.7982 19.557 23.3847 18.883 23.3847C17.0293 23.3847 15.4566 24.7802 15.4004 26.4859V26.5893C15.4004 27.4679 15.7936 28.2949 16.4676 28.9152V28.9669C16.5238 29.0185 19.22 31.1894 20.4558 32.1714C20.7928 32.4299 21.2983 32.4299 21.6353 32.1714C22.1544 31.7589 22.9213 31.1367 23.6445 30.5498L23.6445 30.5498C24.643 29.7395 25.5583 28.9968 25.6235 28.9669V28.9152C26.2195 28.4124 26.596 27.7076 26.6751 26.9078C27.0642 26.8601 27.5041 26.8331 28.0007 26.8331C28.7553 26.8331 29.3792 26.8954 29.8925 26.9983C29.8916 27.0155 29.8909 27.0327 29.8903 27.05V27.1533C29.8903 28.032 30.2835 28.859 30.9575 29.4792V29.5309C31.0137 29.5826 33.7099 31.7535 34.9457 32.7355C35.2827 32.9939 35.7882 32.9939 36.1252 32.7355C36.6443 32.323 37.4112 31.7007 38.1344 31.1139C39.1329 30.3036 40.0482 29.5609 40.1134 29.5309V29.4792C40.7874 28.9107 41.1806 28.0837 41.1806 27.1533V27.05C41.1244 25.2926 39.6078 23.8971 37.698 23.8971C37.0801 23.8971 36.1252 24.3106 35.732 24.9825C35.6759 25.1376 35.4512 25.1376 35.395 24.9825C34.9457 24.3623 34.0469 23.9488 33.3729 23.9488C32.1794 23.9488 31.1023 24.5273 30.4716 25.3946C29.8707 25.2072 29.066 25.0831 28.0007 25.0831C27.3682 25.0831 26.8276 25.1268 26.3669 25.2016Z" fill="#6B7280"/>
<path d="M25.084 33.25C25.2784 33.6389 26.134 34.4167 28.0007 34.4167C29.8673 34.4167 30.7229 33.6389 30.9173 33.25" stroke="#6B7280" stroke-width="1.75" stroke-linecap="round" stroke-linejoin="round"/>
<path d="M25.1921 13.0152C24.58 13.4948 23.6178 15.4272 24.1479 16.7865C24.6781 18.1459 25.5072 18.4827 25.9282 18.591" stroke="#6B7280" stroke-width="1.39112" stroke-linecap="round"/>
<path d="M28.9101 13.9734C28.2972 14.3913 27.857 16.1886 28.4439 17.4445C28.8807 18.3791 29.9979 18.7419 30.3536 18.8333" stroke="#6B7280" stroke-width="1.39112" stroke-linecap="round"/>
<path d="M32.0018 14.612C31.7083 14.9969 31.9234 16.1063 32.4277 16.8572C32.7258 17.3012 33.6286 17.9496 33.8676 17.9331" stroke="#6B7280" stroke-width="1.38833" stroke-linecap="round"/>
<circle cx="43" cy="43" r="10" fill="#E5E7EB" stroke="white" stroke-width="2"/>
<path d="M43.0118 39.1895C43.1164 38.964 43.3836 38.8668 43.6086 38.9723L45.5454 39.8803C45.7705 39.9858 45.8681 40.2541 45.7635 40.4795L43.0823 46.2603C43.0314 46.3701 42.9385 46.4546 42.8245 46.4947L41.4156 46.9904C41.1852 47.0714 40.932 46.9527 40.8456 46.7231L40.3177 45.3195C40.275 45.2059 40.2796 45.0801 40.3306 44.9703L43.0118 39.1895Z" fill="#9CA3AF"/>
<path d="M41.127 39.3809L46.4906 41.8973" stroke="#E5E7EB" stroke-width="0.5625"/>
</g>
<defs>
<clipPath id="clip0_4339_14089">
<rect width="56" height="56" fill="white"/>
</clipPath>
</defs>
</svg>
