<svg xmlns="http://www.w3.org/2000/svg" width="157" height="39" viewBox="0 0 157 39" fill="none">
  <rect x="40.209" y="10.3491" width="35.7907" height="3.97674" fill="#F97316"/>
  <rect x="40.209" y="14.3257" width="3.53488" height="22.093" fill="#F97316"/>
  <rect x="53.9062" y="14.3257" width="3.53488" height="22.093" fill="#F97316"/>
  <rect x="76" y="14.3257" width="3.53488" height="22.093" fill="#FDBA74"/>
  <rect x="91.4648" y="14.3257" width="3.53488" height="22.093" fill="#FDBA74"/>
  <rect x="76" y="10.3491" width="19" height="3.97674" fill="#FDBA74"/>
  <rect y="3.2793" width="16.3488" height="16.1279" fill="#F97316"/>
  <rect y="19.4072" width="16.3488" height="3.97674" fill="#FDBA74"/>
  <rect x="16.3496" y="19.4072" width="10.6047" height="3.97674" fill="#F97316"/>
  <rect x="12.8145" y="23.3838" width="3.53488" height="13.2558" fill="#F97316"/>
  <rect y="23.3838" width="3.53488" height="13.2558" fill="#F97316"/>
  <rect x="23.418" y="23.3838" width="3.53488" height="13.2558" fill="#F97316"/>
  <path d="M58.3008 8.61084H64.2457H76.0495V10.3681H58.3008V8.61084Z" fill="#EA580C"/>
  <path d="M64.2754 8.61076L64.6269 0H76.6643L76.0493 8.61076H64.2754Z" fill="#FDBA74"/>
  <path d="M65.5938 7.55623L66.0331 1.14209H75.4346L74.9074 7.55623H65.5938Z" fill="#FFEDD5"/>
  <path d="M115.481 20.0696C113.96 20.3855 112.713 21.068 111.693 22.1699C110.896 23.0282 110.539 23.7669 110.565 24.5412C110.59 25.2442 110.838 25.7239 111.344 26.071C112.221 26.6582 113.358 26.5821 114.201 25.8852L114.632 25.5211L114.707 25.9364C114.804 26.4222 115.144 26.9289 115.492 27.0884C116.128 27.3793 117.235 27.0493 117.727 26.4073C117.968 26.1017 117.968 26.1017 118.086 26.3011C118.183 26.4706 118.169 26.6548 118.015 27.1507C117.158 30.0723 113.472 33.0954 108.077 35.362C106.954 35.8253 104.08 37.4399 104.664 37.4165C105.087 37.3996 109.873 35.0978 111.505 34.2061C115.057 32.2683 117.886 29.5534 118.472 27.5303L118.625 27.0242L119.22 27.0107C119.572 26.9966 119.863 26.9441 119.94 26.8594C120.319 26.4463 120.303 26.8653 119.907 28.238C118.926 31.6237 116.918 34.4894 114.116 36.54C113.379 37.0796 113.16 37.0091 113.354 37.0829C113.518 37.1478 113.848 37.2241 114.321 36.9093C116.419 35.5092 118.539 32.9554 119.654 30.5131C120.037 29.6612 120.746 27.4291 120.735 27.103C120.727 26.8585 120.847 26.8537 121.088 27.0991C121.569 27.6002 122.544 27.5102 123.107 26.9061L123.428 26.5668L123.582 26.9177C123.669 27.1182 123.797 27.307 123.858 27.3351C124.002 27.4212 124.044 28.6234 123.946 29.5864C123.611 32.7115 122.067 35.579 119.741 37.3963C119.706 37.4169 121.101 37.3256 121.377 37.4166C121.377 37.4166 120.332 37.5767 121.257 36.6317C123.311 34.5294 124.465 31.7489 124.496 28.8706L124.515 27.6761L125.009 27.6564C125.562 27.6342 126.187 27.3338 126.416 26.9675C126.799 26.3808 126.353 26.2967 125.838 26.858C125.556 27.1652 125.427 27.2315 125.055 27.2464C124.692 27.2609 124.549 27.2054 124.299 26.9604C124.007 26.6762 123.995 26.6257 123.963 25.6986C123.93 24.7409 123.929 24.7307 123.689 24.7709C123.498 24.7989 123.422 24.9244 123.297 25.3987C123.137 26.0071 122.833 26.56 122.501 26.8589C121.963 27.3396 121.262 26.8881 121.119 25.9654C121.068 25.6614 121.051 25.1621 121.071 24.8553C121.09 24.5484 121.09 24.2627 121.068 24.2126C120.994 24.0932 120.633 24.1484 120.597 24.2825C120.579 24.3546 120.492 24.7356 120.415 25.1264C120.223 26.0013 119.731 26.6433 119.228 26.6635C118.765 26.682 118.561 26.3331 118.456 25.3272C118.391 24.6157 118.347 24.5052 118.196 24.5112C118.065 24.5165 117.959 24.6737 117.833 25.0869C117.398 26.5021 116.294 27.2298 115.585 26.5644C115.325 26.3198 115.312 26.2488 115.268 25.261C115.238 24.395 115.201 24.2128 115.07 24.1977C114.978 24.1809 114.831 24.299 114.726 24.4563C114.028 25.5657 113.193 26.1806 112.524 26.0748C111.662 25.9358 111.009 25.1254 111.102 24.3055C111.275 22.911 112.952 21.2727 114.866 20.6553C115.764 20.3644 119.106 20.2204 120.474 20.4309C122.287 20.695 123.593 21.1325 124.85 21.9086C126.487 22.9143 127.365 24.1034 127.716 25.7728C128.357 28.8793 126.644 33.8246 123.911 36.7193C123.396 37.2602 123.361 37.4147 123.743 37.3994C124.116 37.3845 125.412 35.8226 126.26 34.3807C128.44 30.6716 129.013 26.2616 127.62 23.8892C126.473 21.9252 123.894 20.5184 120.592 20.0589C119.316 19.8855 116.382 19.8907 115.481 20.0696Z" fill="#EA580C" stroke="#EA580C" stroke-width="0.8"/>
  <path d="M134.197 25.8957C133.137 26.1109 132.268 26.5743 131.556 27.3217C131 27.9038 130.751 28.4046 130.769 28.9293C130.786 29.4056 130.958 29.7305 131.311 29.9652C131.921 30.3625 132.713 30.31 133.301 29.8372L133.601 29.5901L133.653 29.8715C133.721 30.2006 133.957 30.5436 134.2 30.6515C134.642 30.848 135.414 30.6236 135.757 30.1882C135.926 29.981 135.926 29.981 136.008 30.116C136.075 30.2308 136.065 30.3556 135.957 30.6917C135.359 32.672 132.789 34.7232 129.028 36.2631C128.245 36.5779 126.242 37.6741 126.649 37.6578C126.943 37.646 130.279 36.0828 131.417 35.4773C133.893 34.1616 135.866 32.3199 136.275 30.9486L136.383 30.6056L136.797 30.5959C137.042 30.5861 137.245 30.5503 137.299 30.4929C137.563 30.2127 137.552 30.4966 137.275 31.427C136.589 33.7218 135.188 35.6651 133.235 37.0567C132.721 37.4229 132.569 37.3752 132.704 37.4251C132.818 37.469 133.047 37.5204 133.377 37.3067C134.84 36.3564 136.318 34.6244 137.097 32.9688C137.365 32.3912 137.86 30.8782 137.852 30.6573C137.847 30.4917 137.931 30.4883 138.098 30.6544C138.433 30.9936 139.112 30.9318 139.505 30.5221L139.729 30.2919L139.836 30.5296C139.897 30.6654 139.985 30.7932 140.028 30.8122C140.128 30.8704 140.157 31.685 140.088 32.3375C139.852 34.4553 138.775 36.3994 137.153 37.6326C137.128 37.6465 138.101 37.5836 138.293 37.6451C138.293 37.6451 137.565 37.7544 138.21 37.1133C139.642 35.6873 140.448 33.8024 140.471 31.8521L140.486 31.0428L140.829 31.029C141.215 31.0136 141.65 30.8095 141.81 30.5611C142.078 30.1633 141.767 30.1067 141.408 30.4874C141.211 30.6957 141.121 30.7408 140.862 30.7512C140.609 30.7613 140.51 30.7238 140.335 30.558C140.132 30.3656 140.124 30.3314 140.102 29.7032C140.08 29.0543 140.079 29.0474 139.912 29.0749C139.779 29.094 139.726 29.1791 139.639 29.5006C139.526 29.9129 139.315 30.2878 139.083 30.4906C138.708 30.8167 138.22 30.5113 138.121 29.8862C138.085 29.6802 138.074 29.342 138.088 29.1341C138.102 28.9261 138.102 28.7326 138.087 28.6986C138.035 28.6177 137.783 28.6554 137.758 28.7463C137.746 28.7952 137.685 29.0534 137.63 29.3183C137.496 29.9112 137.153 30.3466 136.803 30.3606C136.48 30.3736 136.338 30.1373 136.266 29.4558C136.221 28.9737 136.19 28.8989 136.085 28.9031C135.994 28.9068 135.92 29.0134 135.832 29.2935C135.528 30.2527 134.758 30.7466 134.265 30.2963C134.084 30.1308 134.075 30.0827 134.045 29.4134C134.024 28.8266 133.999 28.7032 133.907 28.6931C133.844 28.6818 133.741 28.7619 133.668 28.8686C133.181 29.6208 132.598 30.0381 132.132 29.9669C131.532 29.8734 131.078 29.3248 131.143 28.7691C131.265 27.8241 132.434 26.7128 133.768 26.293C134.393 26.0952 136.722 25.9951 137.675 26.1367C138.938 26.3142 139.847 26.6096 140.722 27.1345C141.863 27.8147 142.474 28.6198 142.716 29.7507C143.162 31.855 141.964 35.2072 140.059 37.1707C139.699 37.5376 139.675 37.6423 139.941 37.6316C140.201 37.6212 141.105 36.5619 141.696 35.5843C143.218 33.0694 143.62 30.0809 142.651 28.4744C141.854 27.1446 140.058 26.1934 137.757 25.8845C136.868 25.768 134.825 25.7737 134.197 25.8957Z" fill="#EA580C" stroke="#EA580C" stroke-width="0.8"/>
  <path d="M149.141 28.8036C148.327 28.9681 147.66 29.3217 147.114 29.892C146.687 30.3363 146.495 30.7183 146.509 31.1186C146.522 31.4819 146.654 31.7297 146.925 31.9088C147.393 32.2117 148.001 32.1715 148.453 31.8107L148.684 31.6221L148.723 31.8368C148.775 32.0878 148.957 32.3495 149.143 32.4317C149.483 32.5816 150.075 32.4102 150.339 32.078C150.468 31.9199 150.468 31.9199 150.531 32.0228C150.583 32.1104 150.575 32.2056 150.492 32.462C150.032 33.9728 148.059 35.5381 145.171 36.7136C144.57 36.9539 143.031 37.7906 143.344 37.7781C143.57 37.769 146.132 36.5758 147.006 36.1137C148.907 35.1095 150.422 33.7041 150.736 32.6579L150.819 32.3962L151.137 32.3888C151.325 32.3812 151.481 32.3539 151.523 32.3101C151.725 32.0963 151.717 32.3128 151.504 33.0227C150.977 34.7735 149.901 36.2562 148.401 37.3182C148.006 37.5977 147.889 37.5614 147.993 37.5994C148.08 37.6328 148.257 37.672 148.51 37.5089C149.634 36.7837 150.769 35.4621 151.367 34.1989C151.573 33.7582 151.953 32.604 151.948 32.4354C151.943 32.3091 152.008 32.3065 152.136 32.4332C152.393 32.6918 152.915 32.6446 153.217 32.3319L153.389 32.1563L153.47 32.3376C153.517 32.4412 153.585 32.5386 153.618 32.5531C153.695 32.5975 153.717 33.2189 153.664 33.7167C153.482 35.3324 152.655 36.8157 151.409 37.7568C151.39 37.7674 152.137 37.7192 152.284 37.7661C152.284 37.7661 151.725 37.8496 152.221 37.3604C153.321 36.2722 153.94 34.8342 153.958 33.3464L153.969 32.7289L154.233 32.7184C154.529 32.7065 154.864 32.5508 154.987 32.3613C155.192 32.0577 154.953 32.0146 154.677 32.3051C154.526 32.4641 154.457 32.4985 154.258 32.5064C154.064 32.5142 153.988 32.4856 153.854 32.3591C153.698 32.2125 153.692 32.1863 153.675 31.7071C153.658 31.2121 153.658 31.2068 153.529 31.2278C153.427 31.2424 153.386 31.3074 153.319 31.5526C153.233 31.8672 153.07 32.1532 152.892 32.308C152.604 32.5568 152.229 32.324 152.154 31.8471C152.127 31.69 152.118 31.432 152.128 31.2733C152.139 31.1147 152.139 30.967 152.128 30.9411C152.088 30.8795 151.895 30.9083 151.875 30.9776C151.866 31.0149 151.819 31.2119 151.777 31.4139C151.674 31.8663 151.411 32.1985 151.142 32.2093C150.894 32.2192 150.785 32.039 150.729 31.5192C150.695 31.1514 150.671 31.0943 150.591 31.0976C150.521 31.1004 150.464 31.1817 150.396 31.3954C150.163 32.1272 149.572 32.5042 149.193 32.1607C149.054 32.0345 149.047 31.9978 149.024 31.4872C149.009 31.0396 148.989 30.9455 148.919 30.9377C148.87 30.9291 148.791 30.9903 148.735 31.0717C148.361 31.6456 147.913 31.9641 147.556 31.9099C147.095 31.8387 146.746 31.4202 146.796 30.9963C146.89 30.2754 147.788 29.4274 148.812 29.1069C149.292 28.9558 151.08 28.879 151.812 28.9868C152.782 29.122 153.48 29.3472 154.152 29.7474C155.027 30.2661 155.496 30.8801 155.682 31.7428C156.024 33.3481 155.104 35.9056 153.64 37.4038C153.364 37.6838 153.346 37.7636 153.55 37.7554C153.749 37.7475 154.444 36.9392 154.898 36.1933C156.067 34.2745 156.376 31.9945 155.633 30.7692C155.02 29.7549 153.642 29.0296 151.875 28.7944C151.193 28.7057 149.624 28.7105 149.141 28.8036Z" fill="#EA580C" stroke="#EA580C" stroke-width="0.8"/>
</svg>